<?xml version="1.0" encoding="UTF-8" standalone="no"?>
<!-- Created with Inkscape (http://www.inkscape.org/) -->

<svg
   xmlns:dc="http://purl.org/dc/elements/1.1/"
   xmlns:cc="http://creativecommons.org/ns#"
   xmlns:rdf="http://www.w3.org/1999/02/22-rdf-syntax-ns#"
   xmlns:svg="http://www.w3.org/2000/svg"
   xmlns="http://www.w3.org/2000/svg"
   xmlns:sodipodi="http://sodipodi.sourceforge.net/DTD/sodipodi-0.dtd"
   xmlns:inkscape="http://www.inkscape.org/namespaces/inkscape"
   width="68.014595mm"
   height="9.6072655mm"
   viewBox="0 0 240.99659 34.041492"
   id="svg2"
   version="1.1"
   inkscape:version="0.91 r13725"
   sodipodi:docname="mdf-logo.svg">
  <defs
     id="defs4" />
  <sodipodi:namedview
     id="base"
     pagecolor="#ffffff"
     bordercolor="#666666"
     borderopacity="1.0"
     inkscape:pageopacity="0.0"
     inkscape:pageshadow="2"
     inkscape:zoom="0.35"
     inkscape:cx="1265.1013"
     inkscape:cy="-383.04532"
     inkscape:document-units="px"
     inkscape:current-layer="layer1"
     showgrid="false"
     inkscape:window-width="1280"
     inkscape:window-height="961"
     inkscape:window-x="1912"
     inkscape:window-y="48"
     inkscape:window-maximized="1"
     fit-margin-top="0"
     fit-margin-left="0"
     fit-margin-right="0"
     fit-margin-bottom="0" />
  <metadata
     id="metadata7">
    <rdf:RDF>
      <cc:Work
         rdf:about="">
        <dc:format>image/svg+xml</dc:format>
        <dc:type
           rdf:resource="http://purl.org/dc/dcmitype/StillImage" />
        <dc:title></dc:title>
      </cc:Work>
    </rdf:RDF>
  </metadata>
  <g
     inkscape:label="Layer 1"
     inkscape:groupmode="layer"
     id="layer1"
     transform="translate(551.78184,-115.27539)">
    <path
       style="fill:#ffffff"
       d="m -504.18857,149.11577 c -5.58969,-1.234 -9.65903,-4.40387 -12.1664,-9.4772 -1.17775,-2.38301 -1.32836,-3.01315 -1.4818,-6.19978 -0.26246,-5.45039 1.01605,-9.15759 4.42985,-12.8449 6.57834,-7.10539 18.29069,-7.0889 24.88621,0.035 1.98724,2.14646 3.67692,5.22051 4.01516,7.30482 0.1908,1.1758 0.16275,1.20924 -1.0145,1.20924 -1.13909,0 -1.24978,-0.11075 -1.87072,-1.87164 -1.29359,-3.66842 -4.01928,-6.54503 -7.94371,-8.38355 -1.83527,-0.85978 -2.50076,-0.97412 -5.64556,-0.96995 -3.14013,0.004 -3.81701,0.12217 -5.67915,0.99007 -4.02812,1.87739 -6.87922,5.0408 -8.21587,9.1158 -0.97117,2.96077 -0.65082,7.4016 0.74984,10.39455 4.27625,9.13753 16.20904,11.26651 23.3157,4.15985 1.63672,-1.63671 3.91138,-5.44019 3.91138,-6.54024 0,-0.30841 0.4424,-0.47781 1.24777,-0.47781 1.05639,0 1.24772,0.12302 1.24748,0.80213 -3.1e-4,1.03629 -1.73793,4.65312 -3.17091,6.60043 -1.54576,2.10055 -4.95098,4.51627 -7.61256,5.4005 -2.55582,0.84907 -6.91462,1.21349 -9.00221,0.75263 z m 108.10834,-3.93757 c -1.86365,-0.47134 -4.64765,-1.93134 -6.07871,-3.18784 -0.66252,-0.58169 -1.75132,-2.06593 -2.41956,-3.29832 -1.182,-2.17984 -1.215,-2.35206 -1.215,-6.3405 0,-3.61236 0.1022,-4.30744 0.85963,-5.84627 1.68232,-3.41789 4.47135,-5.78375 8.04191,-6.82174 3.92865,-1.14209 13.35043,-0.16088 13.97048,1.45493 0.0983,0.25612 -0.0427,1.23946 -0.31339,2.18521 -0.55877,1.95259 -0.63386,1.97231 -4.00621,1.05177 -7.44456,-2.0321 -13.40773,1.54236 -13.37529,8.01746 0.0262,5.23349 5.82828,9.43876 11.54348,8.36658 l 1.28283,-0.24066 0,-3.54888 0,-3.54889 2.50482,0 2.5048,0 -0.0984,5.41379 -0.0984,5.41379 -1.78252,0.48981 c -2.22106,0.61032 -9.5243,0.89403 -11.32045,0.43976 z m -155.70161,-12.84054 0,-12.84801 3.11532,0.103 3.11531,0.103 3.35224,9.00173 c 1.84373,4.95095 3.46322,9.00172 3.59887,9.00172 0.13565,0 1.82883,-4.09088 3.76264,-9.09085 l 3.51601,-9.09084 3.1387,0 3.1387,0 0,12.83413 0,12.83414 -2.49553,0 -2.49552,0 -0.0192,-8.28871 -0.0192,-8.28872 -1.59913,4.0998 c -0.87952,2.25488 -2.33614,5.99165 -3.23693,8.30392 l -1.6378,4.20411 -2.34093,-0.10432 -2.34094,-0.10433 -2.94596,-8.19959 -2.94596,-8.19959 -0.013,8.28872 -0.013,8.28871 -2.31727,0 -2.31728,0 0,-12.84802 z m 74.86581,0.02 0,-12.90363 7.2192,0.13212 c 5.91792,0.10831 7.47625,0.24552 8.64522,0.76119 2.38224,1.05089 3.99958,2.35757 5.30431,4.28544 4.72062,6.97517 2.03031,16.61463 -5.45427,19.54286 -1.73343,0.67818 -2.87103,0.79795 -8.85176,0.93193 l -6.8627,0.15373 0,-12.90364 z m 12.39603,7.64992 c 3.63356,-1.07905 5.41022,-3.58968 5.41785,-7.65604 0.003,-1.69784 -0.22193,-2.80325 -0.84216,-4.13527 -1.41757,-3.04437 -3.54284,-4.06432 -8.46882,-4.06432 l -3.15534,0 0,8.19959 0,8.19958 2.60907,0 c 1.43499,0 3.43272,-0.24459 4.4394,-0.54354 z m 19.68932,-7.65604 0,-12.83414 2.49553,0 2.49553,0 0,12.83414 0,12.83414 -2.49553,0 -2.49553,0 0,-12.83414 z m 11.76026,12.56676 c -0.002,-0.14706 2.03851,-5.92242 4.53537,-12.83414 l 4.53976,-12.56676 2.36942,0 2.36943,0 4.50332,12.44553 c 2.47682,6.84503 4.50332,12.6204 4.50332,12.83413 0,0.24573 -0.97706,0.38862 -2.65726,0.38862 l -2.65727,0 -0.96616,-3.21934 -0.96616,-3.21935 -4.10145,0.0999 -4.10144,0.0999 -1.03919,3.1194 -1.03918,3.11942 -2.64407,0 c -1.45424,0 -2.64604,-0.12033 -2.64844,-0.26738 z m 12.90807,-14.34332 c -0.71149,-2.15356 -1.40328,-3.79794 -1.53732,-3.65416 -0.21859,0.23447 -2.45379,6.97138 -2.45379,7.39575 0,0.0957 1.18906,0.17399 2.64236,0.17399 l 2.64235,0 -1.2936,-3.91558 z m 47.70195,1.77656 0,-12.83414 7.04096,0.002 c 4.03663,10e-4 7.64599,0.16996 8.45892,0.39565 3.417,0.94863 5.33748,4.84384 4.4636,9.05328 -0.47418,2.28415 -1.72044,3.94401 -3.58953,4.78082 l -1.30248,0.58314 2.98113,5.14969 c 1.63963,2.83233 2.98113,5.27435 2.98113,5.4267 0,0.15235 -1.24331,0.27567 -2.7629,0.27405 l -2.76291,-0.003 -4.16441,-7.21626 -4.16441,-7.21626 2.7384,-0.19537 c 1.50612,-0.10745 3.0865,-0.38697 3.51197,-0.62114 1.75869,-0.96797 1.75287,-4.54555 -0.009,-5.49132 -0.42054,-0.22576 -2.409,-0.48404 -4.4188,-0.57397 l -3.65416,-0.16348 0,10.74184 0,10.74185 -2.67378,0 -2.67378,0 0,-12.83414 z m 29.58983,0 0,-12.83414 2.67378,0 2.67377,0 0,12.83414 0,12.83414 -2.67377,0 -2.67378,0 0,-12.83414 z m 16.04267,0 0,-12.83414 8.02134,0 8.02133,0 0,2.13902 0,2.13902 -5.5258,0 -5.52582,0 0,3.20854 0,3.20853 4.4563,0 4.4563,0 0,2.13903 0,2.13902 -4.4563,0 -4.4563,0 0,5.34756 0,5.34756 -2.49553,0 -2.49552,0 0,-12.83414 z m -177.71718,9.86503 c -4.1529,-1.62827 -6.52292,-4.73173 -6.86466,-8.98903 -0.51242,-6.38369 4.04847,-11.34471 10.4297,-11.34471 5.94668,0 10.51687,4.49992 10.51687,10.35516 l 0,1.53956 -8.38509,0 -8.38509,0 0.71219,1.396 c 1.91939,3.76233 6.77601,4.52745 9.91952,1.56273 1.14414,-1.07906 1.43626,-1.1762 3.5368,-1.1762 l 2.28966,0 -0.99127,1.8213 c -1.21719,2.23636 -3.24236,4.02047 -5.39712,4.75467 -1.88921,0.64371 -5.8353,0.68676 -7.38151,0.0805 z m 9.44735,-12.23778 c 0,-0.69908 -2.07649,-2.78605 -3.3454,-3.36229 -1.85561,-0.84267 -3.21821,-0.84267 -5.07382,0 -1.26891,0.57624 -3.3454,2.66321 -3.3454,3.36229 0,0.12855 2.64704,0.23372 5.88231,0.23372 3.23527,0 5.88231,-0.10517 5.88231,-0.23372 z"
       id="path3379"
       inkscape:connector-curvature="0" />
  </g>
</svg>
